<svg xmlns="http://www.w3.org/2000/svg" xmlns:xlink="http://www.w3.org/1999/xlink" width="163" height="83" viewBox="0 0 163 83"><defs><style>.a{fill:url(#a);}</style><linearGradient id="a" x1="1.2885" y1="40.6912" x2="162.2552" y2="40.6912" gradientUnits="userSpaceOnUse"><stop offset="0" stop-color="#f7931e"/><stop offset="0.0464" stop-color="#f78f1c"/><stop offset="0.6876" stop-color="#fd5a09"/><stop offset="1" stop-color="#ff4501"/></linearGradient></defs><path class="a" d="M64.1449,24.4037c-.0315.4524-.0741.7853-.0751,1.1182-.0156,5.5675-.0168,11.135-.0431,16.7024a3.9586,3.9586,0,0,1-2.254,3.66c-2.546,1.3681-4.62.311-6-1.3225-1.8642-2.2064-3.7053-4.4325-5.56-6.647-1.1446-1.3665-2.29-2.7323-3.45-4.0854a5.0443,5.0443,0,0,0-.7-.5745,4.1123,4.1123,0,0,0-.2425.9613c-.0179,2.4054-.0705,4.8133.016,7.2158a4.9885,4.9885,0,0,1-2.9366,4.8859c-.9006.4874-3.2619.0478-4.25-.7674a4.7125,4.7125,0,0,1-1.82-3.81q.0054-9.5679.0063-19.1359a4.6264,4.6264,0,0,1,2.2735-3.9394,3.4383,3.4383,0,0,1,3.1856-.4687,6.8642,6.8642,0,0,1,2.7428,2.004c2.998,3.4038,5.894,6.8974,8.8365,10.35a9.7327,9.7327,0,0,0,.8447.7879,5.9169,5.9169,0,0,0,.2579-1.1824c.0352-2.5128-.0394-5.03.0727-7.5383a4.6853,4.6853,0,0,1,2.7287-4.08,3.8571,3.8571,0,0,1,2.8412-.3813,6.9006,6.9006,0,0,1,2.2086,1.4552,6.4711,6.4711,0,0,1,.8475.996c.2492-.2816.46-.5078.6571-.7446a4.3765,4.3765,0,0,1,3.67-1.8173c4.944.0934,9.891.0564,14.8365.0245a4.1639,4.1639,0,0,1,3.6656,5.3763,4.3742,4.3742,0,0,1-3.782,2.5364c-.7236-.0659-1.4594.0141-2.1877-.0184-.676-.03-.9616.1868-.9571.9245.0291,4.7568-.0224,9.5143.0357,14.2706.0281,2.3006-.7311,4.1705-2.8741,5.0635a4.0321,4.0321,0,0,1-4.2466-.5564,4.5639,4.5639,0,0,1-1.8848-3.7494c.0414-5,.0052-10,.0324-15,.0038-.7013-.1984-1.003-.9158-.9526-.5379.0379-1.0848-.0366-1.62.0158a4.0635,4.0635,0,0,1-3.3073-1.1578A5.0864,5.0864,0,0,0,64.1449,24.4037ZM14.24,32.3491c-.4091-1.0845-.7768-2.1845-1.174-3.2736-.9327-2.5574-1.9057-5.1007-2.8006-7.6712a4.9541,4.9541,0,0,0-4.4788-3.3531,4.4923,4.4923,0,0,0-1.93.614,4.186,4.186,0,0,0-2.5658,3.6691,5.7513,5.7513,0,0,0,.5032,1.97c1.0528,2.45,2.15,4.88,3.25,7.31,1.7668,3.9018,3.569,7.7877,5.3167,11.6981a4.7123,4.7123,0,0,0,4.7043,3.1546,3.4933,3.4933,0,0,0,3.1126-1.6978,26.7185,26.7185,0,0,0,1.7205-3.3722c2.0685-4.5329,4.1109-9.0777,6.1654-13.617.2355-.52.4869-1.0333.7309-1.55l.255.0125A8.449,8.449,0,0,1,27.17,27.268c-.0033,4.8911-.0334,9.7823-.0223,14.6735a4.36,4.36,0,0,0,4.5664,4.5162,4.4034,4.4034,0,0,0,4.3918-4.0826c.0709-1.0223.0422-2.0523.0428-3.0788.0033-5.4859.0169-10.9718-.0049-16.4577a4.583,4.583,0,0,0-4.75-4.7523,2.6921,2.6921,0,0,0-1.3321.1634A16.7209,16.7209,0,0,0,28.02,19.9219c-.366.3258-.5432.3568-.9691-.0387a7.0754,7.0754,0,0,0-2.5127-1.73,4.1705,4.1705,0,0,0-3.858.9943c-1.1566.9159-1.4515,2.2425-1.918,3.485-1.108,2.9514-2.15,5.9275-3.2255,8.8912-.1952.5379-.4226,1.0642-.7086,1.78A6.7092,6.7092,0,0,1,14.24,32.3491ZM130.7215,37.41a4.67,4.67,0,0,1-.9819.658,11.2357,11.2357,0,0,1-4.1215.6057,5.9539,5.9539,0,0,1-4.0352-1.6286,6.2907,6.2907,0,0,1-1.3776-7.7074,5.7469,5.7469,0,0,1,4.76-3.3424,12.4714,12.4714,0,0,1,7.0009,1.5788,7.0356,7.0356,0,0,0,3.7571.7515c1.4161-.1273,3.2409-1.9237,3.0635-3.5376a4.2167,4.2167,0,0,0-1.6772-3.0171,15.0516,15.0516,0,0,0-3.5111-2.0794,22.8072,22.8072,0,0,0-5.5429-1.5382,13.723,13.723,0,0,0-4.9921.2549A19.3769,19.3769,0,0,0,117.62,20.512a13.6492,13.6492,0,0,0-6.9437,10.8845,15.4668,15.4668,0,0,0,.5,5.0285,12.5249,12.5249,0,0,0,1.8194,3.6019,13.6666,13.6666,0,0,0,8.298,5.7875,22.2477,22.2477,0,0,0,6.074.6669,14.3433,14.3433,0,0,0,5.8194-1.4035,12.2891,12.2891,0,0,0,7.1706-12.2713c-.1231-2.07-1.63-3.7708-3.4-3.7852-2.756-.0225-5.5123-.02-8.2685-.0148a4.0166,4.0166,0,0,0-3.976,3.5268c-.3661,2.4848,1.9508,4.9648,4.0354,4.5689a9.942,9.942,0,0,1,1.8249-.0171Zm-20.6864,8.5364a3.8133,3.8133,0,0,0,2.4867-3.4422c.0988-1.5916-.7376-2.8867-1.134-4.3192a11.2,11.2,0,0,0-.45-1.3584c-.3812-.9069-.8218-1.7891-1.1932-2.7-.7226-1.7714-1.4154-3.555-2.1187-5.3343q-1.038-2.6256-2.0729-5.2524a7.72,7.72,0,0,0-2.778-3.9732A8.3427,8.3427,0,0,0,99.7,18.1544a5.7605,5.7605,0,0,0-3.9676.5131,7.5412,7.5412,0,0,0-3.42,3.18c-1.2657,2.8237-2.4016,5.7062-3.5646,8.5751q-1.7618,4.3462-3.4647,8.7163a7.55,7.55,0,0,0-.7855,3.6c.3212,2.9078,3.5042,4.3724,5.9711,3.5784a4.5286,4.5286,0,0,0,2.969-3.2106c.1916-.7068.5756-.863,1.2261-.8572,2.4856.0221,4.9725.0452,7.4571-.0113a1.4321,1.4321,0,0,1,1.6319,1.1631,4.7043,4.7043,0,0,0,4.3077,3.23C108.7184,46.4039,109.3787,46.1809,110.0351,45.9467ZM99.4871,30.4838c.291,1.0112.5454,2.0349.8872,3.0286.2089.6076.0594.8955-.5594.91-.9176.0222-1.8384.0435-2.7525-.0166-.19-.0125-.5454-.4329-.5059-.5792.4772-1.7682,1.0042-3.5233,1.5466-5.2729a4.3329,4.3329,0,0,1,.58-.866C98.99,28.7535,99.2381,29.6187,99.4871,30.4838Zm41.6785,1.6851c0,3.3237-.0236,6.6477.0082,9.9712a4.575,4.575,0,0,0,4.37,4.317c3.4857.0023,6.9716-.0241,10.4568.0173A3.7444,3.7444,0,0,0,158.48,45.8a4.091,4.091,0,0,0,1.9387-3.0124,4.3181,4.3181,0,0,0-3.9227-4.1142c-1.3767-.0435-2.7559-.0047-4.1339-.0129-2.6618-.0158-2.1039.2815-2.1948-2.2655-.02-.56.2244-.7816.7687-.7766,1.27.0117,2.5421-.0442,3.8091.0169a5.4426,5.4426,0,0,0,2.6471-.58,3.7738,3.7738,0,0,0,1.479-5.26,4.2216,4.2216,0,0,0-3.7394-1.996c-1.1348.0079-2.27.0017-3.4046.0015-1.5524,0-1.5169-.0015-1.5668-1.5245-.0246-.7493.2908-.9306.96-.9184,1.5126.0276,3.0262.0014,4.5393.0108a5.1412,5.1412,0,0,0,2.5661-.4893,3.9192,3.9192,0,0,0,1.97-3.85,4.3346,4.3346,0,0,0-3.3378-2.9555c-3.7287.0194-7.4576.0053-11.1864.0084a3.5629,3.5629,0,0,0-2.088.5272,4.6061,4.6061,0,0,0-2.4328,4.2375c.0454,3.107.0122,6.215.0122,9.3226ZM66.0671,54.2674c-.9184-1.5842-1.8383-3.1679-2.7916-4.7311a.8822.8822,0,0,0-.65-.3c-1.2965-.0284-2.5949.0155-3.8905-.0279-.6484-.0216-.7655.261-.7487.823.0346,1.1611.0188,2.3237.0179,3.4857-.0022,2.9456-.0185,5.8913.0067,8.8367.0023.2687.253.7617.4034.7676,1.4784.0581,2.96.0351,4.4891.0351.3028-2.15-.2842-4.25.1352-6.3237a5.5779,5.5779,0,0,1,.4925.8494q1.5587,2.5524,3.1515,5.0839a.8057.8057,0,0,0,.5276.372c1.5621.0293,3.1249.0168,4.8007.0168,0-.5254-.0009-.9735,0-1.4217.0086-3.9183.0247-7.8366.01-11.7547-.001-.2481-.2375-.7058-.3764-.71-1.526-.0515-3.0544-.0324-4.5879-.0324,0,1.1384.0617,2.1649-.0174,3.1805-.0783,1.0052.3643,2.0531-.2358,3.2907C66.4881,55.0872,66.298,54.6655,66.0671,54.2674ZM45.0294,49.2212c-2.0706,0-2.0867,0-2.0973,2.0257-.02,3.7288-.0192,7.4577-.0235,11.1866,0,.3489-.045.7331.501.73,1.5086-.0075,3.0172-.0026,4.6553-.0026,0-.9654,0-1.8475,0-2.73,0-2.1884,0-2.1629,2.2135-2.172.7761-.0032,1.0489.2365,1.0045,1.0379-.07,1.2577-.0185,2.522-.0185,3.8572,1.6187,0,3.1269.0209,4.6326-.03.161-.0055.44-.431.4415-.663.0265-4.1881.0146-8.3765.0238-12.5648.001-.4712-.1491-.6889-.6508-.6811-1.27.02-2.54.0236-3.8095-.0028-.4955-.01-.6787.1706-.6612.6561.0262.7287.0172,1.4588.02,2.1884.0057,1.7336.0049,1.7336-1.7164,1.7394-1.4207.0047-1.4865-.0651-1.4809-1.5226.0038-.99.0007-1.98.0007-3.0529Zm68.162,12.4459a6.6907,6.6907,0,0,0,2.5921-7.5927,7.2674,7.2674,0,0,0-6.62-4.8357,8.8525,8.8525,0,0,0-3.9392.53,6.7477,6.7477,0,0,0-4.1044,8.6155,7.4582,7.4582,0,0,0,7.03,4.7792A7.8066,7.8066,0,0,0,113.1914,61.6671Zm-4.7325-2.78a3.0253,3.0253,0,0,1-2.7349-2.7151,2.9407,2.9407,0,0,1,2.7107-2.7222,2.6944,2.6944,0,0,1,2.6072,2.7332A2.77,2.77,0,0,1,108.4589,58.8867ZM79.0838,49.2592a13.7758,13.7758,0,0,0-1.4245.5,6.619,6.619,0,0,0-4.6506,6.1529,6.755,6.755,0,0,0,1.4052,4.3705,7.7959,7.7959,0,0,0,4.3334,2.7734,8.68,8.68,0,0,0,6.208-1.08,6.7828,6.7828,0,0,0,2.2072-9.6142A7.6331,7.6331,0,0,0,80.619,49.24,8.987,8.987,0,0,0,79.0838,49.2592Zm1.5846,9.6259a3.0441,3.0441,0,0,1-2.6962-2.6707,2.95,2.95,0,0,1,2.6682-2.766A2.6954,2.6954,0,0,1,83.291,56.14,2.752,2.752,0,0,1,80.6684,58.8851Zm47.8343-4.1822c-.5674,0-1.135.0116-1.7021-.002-2.1553-.0521-2.1308-.0547-2.1646,2.0586-.0111.6954.2738.8942.9063.9157a4.9662,4.9662,0,0,1,1.08.2786c-.3489.2961-.6918.6-1.0515.882-.0732.0575-.2087.0392-.3161.0493-1.5729.1467-2.6473-.7794-2.9546-2.5458a3.0055,3.0055,0,0,1,1.4542-3.2547c1.0983-.6026,2.0034-.1369,2.8643.5989a1.0579,1.0579,0,0,0,.8458.1249c.9777-.2776,1.9268-.6562,2.9047-.9331.7912-.2242.94-.5528.4137-1.1754a7.4222,7.4222,0,0,0-4.4692-2.3891,8.5045,8.5045,0,0,0-4.5982.43,6.8776,6.8776,0,0,0-4.0679,9.34c1.1667,2.5664,3.4868,3.57,6.0046,4.0239a7.5227,7.5227,0,0,0,8.62-7.6272c-.0409-.5917-.28-.8158-.8506-.8053-.9725.018-1.9456.005-2.9184.005ZM29.3655,49.2343c-3.16-.0071-6.32-.0037-9.4806-.0145-.4842-.0017-.5917.209-.5389.6552a12.9214,12.9214,0,0,1,.0615,1.5339c-.0057,3.6737-.0112,7.3474-.0373,11.021-.004.5571.1807.75.75.7445,2.6738-.025,5.3481-.0192,8.0221-.0046.4655.0026.7368-.093.8405-.6144a23.0043,23.0043,0,0,1,.6952-2.7448c.2533-.7643-.0847-.9152-.7209-.9133-1.1885.0036-2.3792.0384-3.5639-.0293-.3121-.0178-.8256-.3277-.8639-.5653-.095-.589.4377-.63.8877-.6336.7563-.0063,1.5129-.0172,2.2688-.0005.5588.0123.7756-.234.7508-.7862a18.2169,18.2169,0,0,1,0-1.944c.0388-.6259-.187-.9-.8285-.8742-.7281.0288-1.4584.009-2.1876.0027-.449-.0039-.9832-.0406-.8914-.63.037-.2373.546-.5416.8612-.5684.9119-.0774,1.8349-.013,2.7525-.0412.2473-.0077.656-.0873.7093-.2353.3787-1.05.6841-2.1258,1.0253-3.2336A2.8389,2.8389,0,0,0,29.3655,49.2343Zm120.82.02c-3.2141-.0134-6.4284-.0314-9.6422-.0029-.17.0015-.481.4008-.4825.6166-.0293,4.2142-.0191,8.4286-.0271,12.643-.0009.4755.1678.6647.6664.6614q4.0925-.0279,8.1852,0c.4785.0037.6588-.1741.7552-.6183a26.3913,26.3913,0,0,1,.7-2.7445c.2554-.7673-.0872-.9137-.7211-.9121-1.1886.0032-2.3795.0383-3.5644-.0293-.3122-.0179-.826-.3273-.8645-.5649-.0955-.589.4371-.63.8873-.6341.7564-.0063,1.5131-.0172,2.2691-.0005.5588.0124.7757-.2339.7508-.7862a18.2206,18.2206,0,0,1,0-1.9442c.0389-.6263-.1877-.8994-.829-.874-.7282.0288-1.4585.009-2.1878.0027-.4493-.0038-.9833-.0415-.8907-.631.0373-.2374.5467-.5409.8621-.5677.9121-.0772,1.8352-.0129,2.7529-.0412.2472-.0077.6554-.0881.7088-.2363.3784-1.05.6836-2.1262,1.01-3.1883C150.3278,49.3138,150.2568,49.2541,150.1856,49.2538Zm1.1474,11.77a.6461.6461,0,0,0,.4769.9317c.7335.2562,1.4653.5189,2.1889.8014a6.1038,6.1038,0,0,0,4.6667-.04,5.204,5.204,0,0,0,3.3161-2.9631,4.8758,4.8758,0,0,0,.069-3.0035,4.01,4.01,0,0,0-1.8665-1.758,11.5875,11.5875,0,0,0-2.59-.8664c-.3919-.1112-.8683-.0815-.7938-.677.0718-.5739.541-.6909.9742-.59a15.3792,15.3792,0,0,1,2.1922.7072c.5309.2121.8082.0906.973-.4424.1913-.6185.3832-1.24.6346-1.8355.2118-.5013.11-.8537-.3671-1.0648a14.9845,14.9845,0,0,0-1.7257-.67,6.2632,6.2632,0,0,0-6.7525,1.4836A3.8407,3.8407,0,0,0,154.69,57.71a11.3338,11.3338,0,0,1,1.77.562c.1925.08.435.4145.4.5779-.05.2318-.33.5781-.5213.5839a3.9439,3.9439,0,0,1-1.5559-.2194c-.8106-.3253-1.5689-.7811-2.4575-1.2378C151.9661,59.0841,151.6588,60.0569,151.333,61.0235Zm-113.63,2.359c1.1027-.3286,2.2275-.6007,3.2952-1.0186.3387-.1326.8016-.7275.7332-.9845a27.3764,27.3764,0,0,0-1.1489-3.102c-.1712-.4265-.4542-.4386-.8452-.214a5.3947,5.3947,0,0,1-1.194.4859,2.5124,2.5124,0,0,1-3.0572-1.3345,2.452,2.452,0,0,1,.7973-3.2107,2.6728,2.6728,0,0,1,3.433.14c.5254.3614.7788.2029.9767-.2895.3815-.95.7679-1.8984,1.1031-2.8646a.6536.6536,0,0,0-.2633-.5654A7.4883,7.4883,0,0,0,38.0348,49.2a10,10,0,0,0-3.3718.613,6.8938,6.8938,0,0,0-4.176,8.6018,7.988,7.988,0,0,0,7.1512,4.7488ZM7.753,52.3788c-.0188,1.3071.0351,1.3694,1.3545,1.34,1.1136-.025,1.1873.0452,1.1862,1.1679-.0024,2.4837.0085,4.9677-.0227,7.4511-.0077.6132.1379.8717.8089.8408,1.1584-.0535,2.3221-.0453,3.4814-.0032.6524.0237.832-.2234.8234-.8487-.0333-2.4293-.0207-4.8593-.0268-7.289-.0029-1.1448.1621-1.3376,1.3014-1.3057a1.08,1.08,0,0,0,1.22-.7145c.332-1.0534.6083-2.1249.8853-3.1947.1019-.3934-.0639-.6138-.5052-.6037-.62.0143-1.2417.0024-1.8626.0024-2.8051,0-5.61,0-8.6409,0C7.7559,50.34,7.7676,51.3594,7.753,52.3788ZM98.4594,63.1417a.5311.5311,0,0,0,.3939-.2988c.2681-.9035.5169-1.8138.7348-2.7307.15-.6327-.1579-.8936-.7906-.88-.9989.0217-1.9986.0091-2.998.0125-1.131.0039-1.296-.1646-1.2936-1.323.0055-2.6472.021-5.2945-.0022-7.9414-.0022-.248-.2442-.7036-.3866-.7084-1.5523-.0514-3.107-.0322-4.6988-.0322V63.1547C92.4759,63.1547,95.4677,63.1588,98.4594,63.1417Zm35.4361-13.8892c-.1707.0056-.4584.4016-.47.6275-.0479.9693-.008,1.9427-.0085,2.9147q-.0027,4.7787-.0082,9.5576c0,.3574-.1142.81.495.8095,1.5081-.0014,3.0161-.0005,4.5991-.0005V49.2237C136.913,49.2237,135.4031,49.2028,133.8955,49.2525Z"/></svg>